<?xml version="1.0" encoding="UTF-8" standalone="no"?>
<!-- Created with Inkscape (http://www.inkscape.org/) -->

<svg
   xmlns:dc="http://purl.org/dc/elements/1.1/"
   xmlns:cc="http://creativecommons.org/ns#"
   xmlns:rdf="http://www.w3.org/1999/02/22-rdf-syntax-ns#"
   xmlns:svg="http://www.w3.org/2000/svg"
   xmlns="http://www.w3.org/2000/svg"
   xmlns:sodipodi="http://sodipodi.sourceforge.net/DTD/sodipodi-0.dtd"
   xmlns:inkscape="http://www.inkscape.org/namespaces/inkscape"
   version="1.1"
   id="Layer_2"
   x="0px"
   y="0px"
   viewBox="0 0 1011.1304 1158.1389"
   enable-background="new 0 0 1011.1304 1158.1389"
   xml:space="preserve"
   inkscape:version="0.91 r13725"
   sodipodi:docname="Mikey Rat Copywrong.svg"><metadata
     id="metadata15"><rdf:RDF><cc:Work
         rdf:about=""><dc:format>image/svg+xml</dc:format><dc:type
           rdf:resource="http://purl.org/dc/dcmitype/StillImage" /><dc:title></dc:title></cc:Work></rdf:RDF></metadata><defs
     id="defs13" /><sodipodi:namedview
     pagecolor="#ffffff"
     bordercolor="#666666"
     borderopacity="1"
     objecttolerance="10"
     gridtolerance="10"
     guidetolerance="10"
     inkscape:pageopacity="0"
     inkscape:pageshadow="2"
     inkscape:window-width="640"
     inkscape:window-height="480"
     id="namedview11"
     showgrid="false"
     inkscape:zoom="0.75293213"
     inkscape:cx="452.654"
     inkscape:cy="556.93378"
     inkscape:current-layer="Layer_2" /><g
     id="g3"><path
       d="M884.1213,87.9462c-89.538-67.4718-203.3475-67.4616-254.2007,0.0228c-29.2117,38.7653-31.286,91.3619-10.7971,141.8979   c-36.3367-13.0915-74.451-19.7294-113.5583-19.7294s-77.2217,6.638-113.5583,19.7295   c20.489-50.5359,18.4146-103.1326-10.7971-141.8979c-50.8531-67.4844-164.6626-67.4946-254.2007-0.0228   S6.1105,264.8215,56.9637,332.3059c33.6011,44.5902,94.6891,59.7118,158.0992,45.3828   c-6.9431,12.0036-13.1623,24.458-18.6127,37.3437c-17.5101,41.39-26.3851,85.335-26.3851,130.605   c0,45.27,8.875,89.215,26.385,130.605c16.9,39.955,41.085,75.83,71.88,106.63c30.7999,30.795,66.6749,54.98,106.63,71.88   c41.39,17.51,85.335,26.385,130.605,26.385c45.2699,0,89.2148-8.875,130.605-26.385c39.955-16.9,75.83-41.085,106.6299-71.88   c30.7952-30.8,54.98-66.675,71.8801-106.63c17.51-41.39,26.385-85.335,26.385-130.605c0-45.27-8.875-89.215-26.385-130.605   c-5.4504-12.8857-11.6696-25.3401-18.6127-37.3437c63.4102,14.3289,124.4982-0.7927,158.0992-45.3828   C1005.0198,264.8215,973.6594,155.418,884.1213,87.9462z M505.5652,791.1375c-135.37,0-245.5-110.13-245.5-245.5   s110.13-245.5,245.5-245.5s245.5,110.13,245.5,245.5S640.9352,791.1375,505.5652,791.1375z"
       id="path5" /><path
       d="M664.972,458.1833c-0.701-1.2947-1.4174-2.5802-2.1488-3.8563c-1.1823-2.0626-2.4146-4.0938-3.6753-6.1067   c-2.6392-4.2137-5.4392-8.3241-8.4177-12.3123c-0.8802-1.1787-1.7751-2.3474-2.6847-3.5057   c-1.819-2.3168-3.6964-4.5929-5.6315-6.8271c-2.9023-3.3513-5.9346-6.6084-9.0939-9.7678   c-3.1593-3.1584-6.4165-6.1899-9.7677-9.0921c-14.5223-12.5759-30.813-22.7223-48.5823-30.2379   c-22.66-9.585-46.71-14.445-71.48-14.445c-24.765,0-48.8151,4.86-71.48,14.445c-6.8329,2.8906-13.4475,6.1705-19.8271,9.8279   c-2.5518,1.463-5.0662,2.9865-7.5417,4.5696c-11.1404,7.1241-21.498,15.4572-30.9761,24.9325   c-16.8501,16.85-30.0851,36.48-39.3351,58.35c-4.46,10.55-7.8949,21.4-10.295,32.48v0.0001h83.48   c15.4351-37.855,52.64-64.605,95.9751-64.605c0.395,0,0.7899,0,1.1799,0.01c0.295-0.01,0.595-0.01,0.895-0.01   c57.13,0,103.605,46.475,103.605,103.605s-46.475,103.605-103.605,103.605c-0.33,0-0.655,0-0.98-0.01   c-0.365,0.01-0.73,0.01-1.095,0.01c-38.395,0-71.9751-20.995-89.875-52.105h-86.405v0.0001c1.98,6.765,4.35,13.43,7.1201,19.98   c9.25,21.8701,22.4849,41.5001,39.335,58.35c16.8499,16.845,36.4799,30.0801,58.345,39.3301   c22.665,9.585,46.7151,14.4449,71.48,14.4449c24.77,0,48.8201-4.86,71.48-14.4449c21.8701-9.25,41.5-22.485,58.3501-39.3301   c16.8499-16.85,30.0798-36.48,39.3298-58.35c9.5852-22.6599,14.4451-46.71,14.4451-71.48v-0.0001   c0-3.1919-0.084-6.3713-0.2451-9.5378c-0.2969-5.8374-0.8706-11.6284-1.7124-17.3658c-0.2937-2.0023-0.6224-3.9975-0.9822-5.9861   c-2.3901-13.2097-6.2269-26.1116-11.5054-38.5902C670.3376,468.6899,667.7764,463.3624,664.972,458.1833z"
       id="path7" /><path
       d="M641.4558,903.365c-59.498,0-98.4287,41.1348-135.8906,78.5967c-35.2578-35.2588-75.6577-78.5967-130.0142-78.5967   c-64.6396,0-111.6504,50.6836-111.6504,108.7129c0,63.1699,44.0728,108.7119,105.7744,108.7119   c59.4976,0,98.4287-41.1348,135.8901-78.5957c35.2578,35.2578,75.6582,78.5957,130.0137,78.5957   c64.6406,0,111.6514-50.6836,111.6514-108.7119C747.2302,948.907,703.8914,903.365,641.4558,903.365z M372.613,1076.7175   c-35.9927,0-62.436-27.1787-62.436-64.6396c0-34.5234,27.9126-64.6396,64.6396-64.6396c42.6035,0,72.7197,38.1953,101.3667,64.6396   C448.2708,1040.7244,414.4822,1076.7175,372.613,1076.7175z M636.3142,1076.7175c-42.6035,0-72.7197-38.1963-101.3672-64.6396   c27.9121-28.6475,61.7012-64.6396,103.5703-64.6396c35.9932,0,62.4365,27.1777,62.4365,64.6396   C700.9539,1046.6013,673.0408,1076.7175,636.3142,1076.7175z"
       id="path9" /></g></svg>